<svg height="480pt" viewBox="0 -12 480 480" width="480pt" xmlns="http://www.w3.org/2000/svg"><path d="m200 160v80h-104v48h160v-16c0-17.671875 14.328125-32 32-32h184v-80zm0 0" fill="#394d5c"/><path d="m464 128-16 32-280-120 16-32zm0 0" fill="#394d5c"/><path d="m120 208h80v32h-80zm0 0" fill="#e8ecf2"/><path d="m232 168c-2.832031-.003906-5.453125-1.503906-6.890625-3.945312-1.433594-2.445313-1.46875-5.464844-.09375-7.941407l40-72c2.148437-3.863281 7.019531-5.253906 10.878906-3.105469 3.863281 2.148438 5.253907 7.019532 3.105469 10.878907l-40 72c-1.414062 2.542969-4.09375 4.117187-7 4.113281zm0 0" fill="#98a1a1"/><path d="m200 160h272v32h-272zm0 0" fill="#aabece"/><path d="m112 288h32v160h-32zm0 0" fill="#98a1a1"/><path d="m216 288h32v160h-32zm0 0" fill="#98a1a1"/><path d="m424 240h32v208h-32zm0 0" fill="#98a1a1"/><g fill="#394d5c"><path d="m424 416h32v32h-32zm0 0"/><path d="m112 416h32v32h-32zm0 0"/><path d="m216 416h32v32h-32zm0 0"/></g><path d="m344 440h136v16h-136zm0 0" fill="#ffd782"/><path d="m312 440h16v16h-16zm0 0" fill="#ffd782"/><path d="m32 440h264v16h-264zm0 0" fill="#ffd782"/><path d="m8 376h72v16h-72zm0 0" fill="#98a1a1"/><path d="m0 352h16v104h-16zm0 0" fill="#394d5c"/><path d="m72 352h16v104h-16zm0 0" fill="#394d5c"/><path d="m8 320h72v32h-72zm0 0" fill="#d91d4c"/><path d="m80 360h-72c-4.417969 0-8-3.582031-8-8v-32c0-4.417969 3.582031-8 8-8h72c4.417969 0 8 3.582031 8 8v32c0 4.417969-3.582031 8-8 8zm-64-16h56v-16h-56zm0 0" fill="#da1c4b"/><path d="m472 152h-11.054688l10.253907-20.421875c.984375-1.972656 1.113281-4.261719.359375-6.328125-.757813-2.066406-2.335938-3.734375-4.359375-4.601562l-280-120c-3.894531-1.671876-8.417969-.015626-10.3125 3.777343l-16 32c-.984375 1.96875-1.113281 4.257813-.355469 6.324219.757812 2.070312 2.332031 3.734375 4.355469 4.601562l97.351562 41.738282-34.941406 62.910156h-27.296875c-4.417969 0-8 3.582031-8 8v40h-72c-4.417969 0-8 3.582031-8 8v24h-16c-4.417969 0-8 3.582031-8 8v48c0 4.417969 3.582031 8 8 8h8v144h-16v-120c0-4.417969-3.582031-8-8-8h-72c-4.417969 0-8 3.582031-8 8v136h16v-64h56v48h-40v16h264v-16h-40v-144c4.417969 0 8-3.582031 8-8v-16c0-13.253906 10.746094-24 24-24h128v192h-72v16h136v-16h-16v-192h8c4.417969 0 8-3.582031 8-8v-80c0-4.417969-3.582031-8-8-8zm-456 176h56v16h-56zm0 48v-16h56v16zm171.785156-357.671875 265.261719 113.671875-8.800781 17.664062-265.292969-113.664062zm89.238282 77.097656 132.007812 56.574219h-163.429688zm-69.023438 72.574219h256v16h-256zm-80 48h64v16h-64zm80 80v144h-56v-144zm-72 112h-16v-112h16zm-16 32v-16h16v16zm104 0v-16h16v16zm16-32h-16v-112h16zm192 32v-16h16v16zm16-32h-16v-160h16zm-160-176c-22.082031.027344-39.972656 17.921875-40 40v8h-144v-32h96c4.417969 0 8-3.582031 8-8v-40h256v32zm0 0"/><path d="m312 440h16v16h-16zm0 0"/></svg>